%TF.GenerationSoftware,KiCad,Pcbnew,8.0.3*%
%TF.CreationDate,2024-07-24T17:03:38+02:00*%
%TF.ProjectId,T10_LED_lamp,5431305f-4c45-4445-9f6c-616d702e6b69,rev?*%
%TF.SameCoordinates,Original*%
%TF.FileFunction,Legend,Top*%
%TF.FilePolarity,Positive*%
%FSLAX46Y46*%
G04 Gerber Fmt 4.6, Leading zero omitted, Abs format (unit mm)*
G04 Created by KiCad (PCBNEW 8.0.3) date 2024-07-24 17:03:38*
%MOMM*%
%LPD*%
G01*
G04 APERTURE LIST*
%ADD10C,0.100000*%
%ADD11C,0.150000*%
%ADD12C,0.120000*%
G04 APERTURE END LIST*
D10*
X100100000Y-73900000D02*
X109900000Y-73900000D01*
D11*
X101554819Y-70817856D02*
X100554819Y-70817856D01*
X100554819Y-70817856D02*
X100554819Y-70579761D01*
X100554819Y-70579761D02*
X100602438Y-70436904D01*
X100602438Y-70436904D02*
X100697676Y-70341666D01*
X100697676Y-70341666D02*
X100792914Y-70294047D01*
X100792914Y-70294047D02*
X100983390Y-70246428D01*
X100983390Y-70246428D02*
X101126247Y-70246428D01*
X101126247Y-70246428D02*
X101316723Y-70294047D01*
X101316723Y-70294047D02*
X101411961Y-70341666D01*
X101411961Y-70341666D02*
X101507200Y-70436904D01*
X101507200Y-70436904D02*
X101554819Y-70579761D01*
X101554819Y-70579761D02*
X101554819Y-70817856D01*
X101554819Y-69341666D02*
X101554819Y-69817856D01*
X101554819Y-69817856D02*
X100554819Y-69817856D01*
X100650057Y-69055951D02*
X100602438Y-69008332D01*
X100602438Y-69008332D02*
X100554819Y-68913094D01*
X100554819Y-68913094D02*
X100554819Y-68674999D01*
X100554819Y-68674999D02*
X100602438Y-68579761D01*
X100602438Y-68579761D02*
X100650057Y-68532142D01*
X100650057Y-68532142D02*
X100745295Y-68484523D01*
X100745295Y-68484523D02*
X100840533Y-68484523D01*
X100840533Y-68484523D02*
X100983390Y-68532142D01*
X100983390Y-68532142D02*
X101554819Y-69103570D01*
X101554819Y-69103570D02*
X101554819Y-68484523D01*
X101654819Y-63142856D02*
X100654819Y-63142856D01*
X100654819Y-63142856D02*
X100654819Y-62904761D01*
X100654819Y-62904761D02*
X100702438Y-62761904D01*
X100702438Y-62761904D02*
X100797676Y-62666666D01*
X100797676Y-62666666D02*
X100892914Y-62619047D01*
X100892914Y-62619047D02*
X101083390Y-62571428D01*
X101083390Y-62571428D02*
X101226247Y-62571428D01*
X101226247Y-62571428D02*
X101416723Y-62619047D01*
X101416723Y-62619047D02*
X101511961Y-62666666D01*
X101511961Y-62666666D02*
X101607200Y-62761904D01*
X101607200Y-62761904D02*
X101654819Y-62904761D01*
X101654819Y-62904761D02*
X101654819Y-63142856D01*
X101654819Y-61666666D02*
X101654819Y-62142856D01*
X101654819Y-62142856D02*
X100654819Y-62142856D01*
X101654819Y-60809523D02*
X101654819Y-61380951D01*
X101654819Y-61095237D02*
X100654819Y-61095237D01*
X100654819Y-61095237D02*
X100797676Y-61190475D01*
X100797676Y-61190475D02*
X100892914Y-61285713D01*
X100892914Y-61285713D02*
X100940533Y-61380951D01*
X101654819Y-58042856D02*
X100654819Y-58042856D01*
X100654819Y-58042856D02*
X100654819Y-57804761D01*
X100654819Y-57804761D02*
X100702438Y-57661904D01*
X100702438Y-57661904D02*
X100797676Y-57566666D01*
X100797676Y-57566666D02*
X100892914Y-57519047D01*
X100892914Y-57519047D02*
X101083390Y-57471428D01*
X101083390Y-57471428D02*
X101226247Y-57471428D01*
X101226247Y-57471428D02*
X101416723Y-57519047D01*
X101416723Y-57519047D02*
X101511961Y-57566666D01*
X101511961Y-57566666D02*
X101607200Y-57661904D01*
X101607200Y-57661904D02*
X101654819Y-57804761D01*
X101654819Y-57804761D02*
X101654819Y-58042856D01*
X101654819Y-56566666D02*
X101654819Y-57042856D01*
X101654819Y-57042856D02*
X100654819Y-57042856D01*
X100654819Y-56328570D02*
X100654819Y-55709523D01*
X100654819Y-55709523D02*
X101035771Y-56042856D01*
X101035771Y-56042856D02*
X101035771Y-55899999D01*
X101035771Y-55899999D02*
X101083390Y-55804761D01*
X101083390Y-55804761D02*
X101131009Y-55757142D01*
X101131009Y-55757142D02*
X101226247Y-55709523D01*
X101226247Y-55709523D02*
X101464342Y-55709523D01*
X101464342Y-55709523D02*
X101559580Y-55757142D01*
X101559580Y-55757142D02*
X101607200Y-55804761D01*
X101607200Y-55804761D02*
X101654819Y-55899999D01*
X101654819Y-55899999D02*
X101654819Y-56185713D01*
X101654819Y-56185713D02*
X101607200Y-56280951D01*
X101607200Y-56280951D02*
X101559580Y-56328570D01*
D12*
%TO.C,DL2*%
X106545000Y-67210000D02*
X103455000Y-67210000D01*
X105000462Y-72760000D02*
G75*
G02*
X103455170Y-67210000I-462J2990000D01*
G01*
X106544830Y-67210000D02*
G75*
G02*
X104999538Y-72760000I-1544830J-2560000D01*
G01*
X107500000Y-69770000D02*
G75*
G02*
X102500000Y-69770000I-2500000J0D01*
G01*
X102500000Y-69770000D02*
G75*
G02*
X107500000Y-69770000I2500000J0D01*
G01*
%TO.C,DL1*%
X106545000Y-60710000D02*
X103455000Y-60710000D01*
X105000462Y-66260000D02*
G75*
G02*
X103455170Y-60710000I-462J2990000D01*
G01*
X106544830Y-60710000D02*
G75*
G02*
X104999538Y-66260000I-1544830J-2560000D01*
G01*
X107500000Y-63270000D02*
G75*
G02*
X102500000Y-63270000I-2500000J0D01*
G01*
X102500000Y-63270000D02*
G75*
G02*
X107500000Y-63270000I2500000J0D01*
G01*
%TO.C,DL3*%
X106545000Y-54210000D02*
X103455000Y-54210000D01*
X105000462Y-59760000D02*
G75*
G02*
X103455170Y-54210000I-462J2990000D01*
G01*
X106544830Y-54210000D02*
G75*
G02*
X104999538Y-59760000I-1544830J-2560000D01*
G01*
X107500000Y-56770000D02*
G75*
G02*
X102500000Y-56770000I-2500000J0D01*
G01*
X102500000Y-56770000D02*
G75*
G02*
X107500000Y-56770000I2500000J0D01*
G01*
%TD*%
M02*
