%TF.GenerationSoftware,KiCad,Pcbnew,8.0.3*%
%TF.CreationDate,2024-07-24T17:03:47+02:00*%
%TF.ProjectId,T10_LED_lamp,5431305f-4c45-4445-9f6c-616d702e6b69,rev?*%
%TF.SameCoordinates,Original*%
%TF.FileFunction,Drillmap*%
%TF.FilePolarity,Positive*%
%FSLAX45Y45*%
G04 Gerber Fmt 4.5, Leading zero omitted, Abs format (unit mm)*
G04 Created by KiCad (PCBNEW 8.0.3) date 2024-07-24 17:03:47*
%MOMM*%
%LPD*%
G01*
G04 APERTURE LIST*
%ADD10C,0.050000*%
%ADD11C,0.200000*%
%ADD12C,0.100000*%
G04 APERTURE END LIST*
D10*
X10050000Y-7450000D02*
X10050000Y-8000000D01*
X10100000Y-5400000D02*
X10900000Y-5400000D01*
X10950000Y-7450000D02*
G75*
G02*
X11000000Y-7400000I50000J0D01*
G01*
X10900350Y-5399650D02*
G75*
G02*
X11000350Y-5499650I-350J-100350D01*
G01*
X11000000Y-5500000D02*
X11000000Y-7400000D01*
X10000000Y-7400000D02*
X10000000Y-5500000D01*
X10950000Y-7450000D02*
X10950000Y-8000000D01*
X10000000Y-5500000D02*
G75*
G02*
X10100000Y-5400000I100000J0D01*
G01*
X10950000Y-8000000D02*
X10050000Y-8000000D01*
X10000000Y-7400000D02*
G75*
G02*
X10050000Y-7450000I0J-50000D01*
G01*
D11*
D12*
X10085000Y-5475000D02*
X10115000Y-5505000D01*
X10115000Y-5475000D02*
X10085000Y-5505000D01*
X10085000Y-6385000D02*
X10115000Y-6415000D01*
X10115000Y-6385000D02*
X10085000Y-6415000D01*
X10085000Y-6585000D02*
X10115000Y-6615000D01*
X10115000Y-6585000D02*
X10085000Y-6615000D01*
X10085000Y-6785000D02*
X10115000Y-6815000D01*
X10115000Y-6785000D02*
X10085000Y-6815000D01*
X10085000Y-7285000D02*
X10115000Y-7315000D01*
X10115000Y-7285000D02*
X10085000Y-7315000D01*
X10135000Y-7535000D02*
X10165000Y-7565000D01*
X10165000Y-7535000D02*
X10135000Y-7565000D01*
X10135000Y-7735000D02*
X10165000Y-7765000D01*
X10165000Y-7735000D02*
X10135000Y-7765000D01*
X10135000Y-7925000D02*
X10165000Y-7955000D01*
X10165000Y-7925000D02*
X10135000Y-7955000D01*
X10235000Y-6185000D02*
X10265000Y-6215000D01*
X10265000Y-6185000D02*
X10235000Y-6215000D01*
X10235000Y-6385000D02*
X10265000Y-6415000D01*
X10265000Y-6385000D02*
X10235000Y-6415000D01*
X10235000Y-6585000D02*
X10265000Y-6615000D01*
X10265000Y-6585000D02*
X10235000Y-6615000D01*
X10235000Y-6785000D02*
X10265000Y-6815000D01*
X10265000Y-6785000D02*
X10235000Y-6815000D01*
X10335000Y-7535000D02*
X10365000Y-7565000D01*
X10365000Y-7535000D02*
X10335000Y-7565000D01*
X10335000Y-7735000D02*
X10365000Y-7765000D01*
X10365000Y-7735000D02*
X10335000Y-7765000D01*
X10335000Y-7925000D02*
X10365000Y-7955000D01*
X10365000Y-7925000D02*
X10335000Y-7955000D01*
X10485000Y-7335000D02*
X10515000Y-7365000D01*
X10515000Y-7335000D02*
X10485000Y-7365000D01*
X10635000Y-7535000D02*
X10665000Y-7565000D01*
X10665000Y-7535000D02*
X10635000Y-7565000D01*
X10635000Y-7735000D02*
X10665000Y-7765000D01*
X10665000Y-7735000D02*
X10635000Y-7765000D01*
X10635000Y-7925000D02*
X10665000Y-7955000D01*
X10665000Y-7925000D02*
X10635000Y-7955000D01*
X10785000Y-6235000D02*
X10815000Y-6265000D01*
X10815000Y-6235000D02*
X10785000Y-6265000D01*
X10785000Y-6335000D02*
X10815000Y-6365000D01*
X10815000Y-6335000D02*
X10785000Y-6365000D01*
X10835000Y-7535000D02*
X10865000Y-7565000D01*
X10865000Y-7535000D02*
X10835000Y-7565000D01*
X10835000Y-7735000D02*
X10865000Y-7765000D01*
X10865000Y-7735000D02*
X10835000Y-7765000D01*
X10835000Y-7925000D02*
X10865000Y-7955000D01*
X10865000Y-7925000D02*
X10835000Y-7955000D01*
X10885000Y-5475000D02*
X10915000Y-5505000D01*
X10915000Y-5475000D02*
X10885000Y-5505000D01*
X10885000Y-6235000D02*
X10915000Y-6265000D01*
X10915000Y-6235000D02*
X10885000Y-6265000D01*
X10885000Y-6335000D02*
X10915000Y-6365000D01*
X10915000Y-6335000D02*
X10885000Y-6365000D01*
X10545000Y-5550000D02*
G75*
G02*
X10455000Y-5550000I-45000J0D01*
G01*
X10455000Y-5550000D02*
G75*
G02*
X10545000Y-5550000I45000J0D01*
G01*
X10545000Y-5804000D02*
G75*
G02*
X10455000Y-5804000I-45000J0D01*
G01*
X10455000Y-5804000D02*
G75*
G02*
X10545000Y-5804000I45000J0D01*
G01*
X10545000Y-6200000D02*
G75*
G02*
X10455000Y-6200000I-45000J0D01*
G01*
X10455000Y-6200000D02*
G75*
G02*
X10545000Y-6200000I45000J0D01*
G01*
X10545000Y-6454000D02*
G75*
G02*
X10455000Y-6454000I-45000J0D01*
G01*
X10455000Y-6454000D02*
G75*
G02*
X10545000Y-6454000I45000J0D01*
G01*
X10545000Y-6850000D02*
G75*
G02*
X10455000Y-6850000I-45000J0D01*
G01*
X10455000Y-6850000D02*
G75*
G02*
X10545000Y-6850000I45000J0D01*
G01*
X10545000Y-7104000D02*
G75*
G02*
X10455000Y-7104000I-45000J0D01*
G01*
X10455000Y-7104000D02*
G75*
G02*
X10545000Y-7104000I45000J0D01*
G01*
D11*
X10258277Y-8313984D02*
X10258277Y-8113984D01*
X10258277Y-8113984D02*
X10305896Y-8113984D01*
X10305896Y-8113984D02*
X10334467Y-8123508D01*
X10334467Y-8123508D02*
X10353515Y-8142555D01*
X10353515Y-8142555D02*
X10363039Y-8161603D01*
X10363039Y-8161603D02*
X10372563Y-8199698D01*
X10372563Y-8199698D02*
X10372563Y-8228269D01*
X10372563Y-8228269D02*
X10363039Y-8266365D01*
X10363039Y-8266365D02*
X10353515Y-8285412D01*
X10353515Y-8285412D02*
X10334467Y-8304460D01*
X10334467Y-8304460D02*
X10305896Y-8313984D01*
X10305896Y-8313984D02*
X10258277Y-8313984D01*
X10458277Y-8313984D02*
X10458277Y-8180650D01*
X10458277Y-8218746D02*
X10467801Y-8199698D01*
X10467801Y-8199698D02*
X10477324Y-8190174D01*
X10477324Y-8190174D02*
X10496372Y-8180650D01*
X10496372Y-8180650D02*
X10515420Y-8180650D01*
X10582086Y-8313984D02*
X10582086Y-8180650D01*
X10582086Y-8113984D02*
X10572563Y-8123508D01*
X10572563Y-8123508D02*
X10582086Y-8133031D01*
X10582086Y-8133031D02*
X10591610Y-8123508D01*
X10591610Y-8123508D02*
X10582086Y-8113984D01*
X10582086Y-8113984D02*
X10582086Y-8133031D01*
X10705896Y-8313984D02*
X10686848Y-8304460D01*
X10686848Y-8304460D02*
X10677324Y-8285412D01*
X10677324Y-8285412D02*
X10677324Y-8113984D01*
X10810658Y-8313984D02*
X10791610Y-8304460D01*
X10791610Y-8304460D02*
X10782086Y-8285412D01*
X10782086Y-8285412D02*
X10782086Y-8113984D01*
X11039229Y-8313984D02*
X11039229Y-8113984D01*
X11039229Y-8113984D02*
X11105896Y-8256841D01*
X11105896Y-8256841D02*
X11172563Y-8113984D01*
X11172563Y-8113984D02*
X11172563Y-8313984D01*
X11353515Y-8313984D02*
X11353515Y-8209222D01*
X11353515Y-8209222D02*
X11343991Y-8190174D01*
X11343991Y-8190174D02*
X11324943Y-8180650D01*
X11324943Y-8180650D02*
X11286848Y-8180650D01*
X11286848Y-8180650D02*
X11267801Y-8190174D01*
X11353515Y-8304460D02*
X11334467Y-8313984D01*
X11334467Y-8313984D02*
X11286848Y-8313984D01*
X11286848Y-8313984D02*
X11267801Y-8304460D01*
X11267801Y-8304460D02*
X11258277Y-8285412D01*
X11258277Y-8285412D02*
X11258277Y-8266365D01*
X11258277Y-8266365D02*
X11267801Y-8247317D01*
X11267801Y-8247317D02*
X11286848Y-8237793D01*
X11286848Y-8237793D02*
X11334467Y-8237793D01*
X11334467Y-8237793D02*
X11353515Y-8228269D01*
X11448753Y-8180650D02*
X11448753Y-8380650D01*
X11448753Y-8190174D02*
X11467801Y-8180650D01*
X11467801Y-8180650D02*
X11505896Y-8180650D01*
X11505896Y-8180650D02*
X11524943Y-8190174D01*
X11524943Y-8190174D02*
X11534467Y-8199698D01*
X11534467Y-8199698D02*
X11543991Y-8218746D01*
X11543991Y-8218746D02*
X11543991Y-8275888D01*
X11543991Y-8275888D02*
X11534467Y-8294936D01*
X11534467Y-8294936D02*
X11524943Y-8304460D01*
X11524943Y-8304460D02*
X11505896Y-8313984D01*
X11505896Y-8313984D02*
X11467801Y-8313984D01*
X11467801Y-8313984D02*
X11448753Y-8304460D01*
X11629705Y-8294936D02*
X11639229Y-8304460D01*
X11639229Y-8304460D02*
X11629705Y-8313984D01*
X11629705Y-8313984D02*
X11620182Y-8304460D01*
X11620182Y-8304460D02*
X11629705Y-8294936D01*
X11629705Y-8294936D02*
X11629705Y-8313984D01*
X11629705Y-8190174D02*
X11639229Y-8199698D01*
X11639229Y-8199698D02*
X11629705Y-8209222D01*
X11629705Y-8209222D02*
X11620182Y-8199698D01*
X11620182Y-8199698D02*
X11629705Y-8190174D01*
X11629705Y-8190174D02*
X11629705Y-8209222D01*
D12*
X9967500Y-8627500D02*
X9997500Y-8657500D01*
X9997500Y-8627500D02*
X9967500Y-8657500D01*
D11*
X10296372Y-8533984D02*
X10315420Y-8533984D01*
X10315420Y-8533984D02*
X10334467Y-8543508D01*
X10334467Y-8543508D02*
X10343991Y-8553031D01*
X10343991Y-8553031D02*
X10353515Y-8572079D01*
X10353515Y-8572079D02*
X10363039Y-8610174D01*
X10363039Y-8610174D02*
X10363039Y-8657793D01*
X10363039Y-8657793D02*
X10353515Y-8695889D01*
X10353515Y-8695889D02*
X10343991Y-8714936D01*
X10343991Y-8714936D02*
X10334467Y-8724460D01*
X10334467Y-8724460D02*
X10315420Y-8733984D01*
X10315420Y-8733984D02*
X10296372Y-8733984D01*
X10296372Y-8733984D02*
X10277324Y-8724460D01*
X10277324Y-8724460D02*
X10267801Y-8714936D01*
X10267801Y-8714936D02*
X10258277Y-8695889D01*
X10258277Y-8695889D02*
X10248753Y-8657793D01*
X10248753Y-8657793D02*
X10248753Y-8610174D01*
X10248753Y-8610174D02*
X10258277Y-8572079D01*
X10258277Y-8572079D02*
X10267801Y-8553031D01*
X10267801Y-8553031D02*
X10277324Y-8543508D01*
X10277324Y-8543508D02*
X10296372Y-8533984D01*
X10448753Y-8714936D02*
X10458277Y-8724460D01*
X10458277Y-8724460D02*
X10448753Y-8733984D01*
X10448753Y-8733984D02*
X10439229Y-8724460D01*
X10439229Y-8724460D02*
X10448753Y-8714936D01*
X10448753Y-8714936D02*
X10448753Y-8733984D01*
X10524944Y-8533984D02*
X10648753Y-8533984D01*
X10648753Y-8533984D02*
X10582086Y-8610174D01*
X10582086Y-8610174D02*
X10610658Y-8610174D01*
X10610658Y-8610174D02*
X10629705Y-8619698D01*
X10629705Y-8619698D02*
X10639229Y-8629222D01*
X10639229Y-8629222D02*
X10648753Y-8648270D01*
X10648753Y-8648270D02*
X10648753Y-8695889D01*
X10648753Y-8695889D02*
X10639229Y-8714936D01*
X10639229Y-8714936D02*
X10629705Y-8724460D01*
X10629705Y-8724460D02*
X10610658Y-8733984D01*
X10610658Y-8733984D02*
X10553515Y-8733984D01*
X10553515Y-8733984D02*
X10534467Y-8724460D01*
X10534467Y-8724460D02*
X10524944Y-8714936D01*
X10772563Y-8533984D02*
X10791610Y-8533984D01*
X10791610Y-8533984D02*
X10810658Y-8543508D01*
X10810658Y-8543508D02*
X10820182Y-8553031D01*
X10820182Y-8553031D02*
X10829705Y-8572079D01*
X10829705Y-8572079D02*
X10839229Y-8610174D01*
X10839229Y-8610174D02*
X10839229Y-8657793D01*
X10839229Y-8657793D02*
X10829705Y-8695889D01*
X10829705Y-8695889D02*
X10820182Y-8714936D01*
X10820182Y-8714936D02*
X10810658Y-8724460D01*
X10810658Y-8724460D02*
X10791610Y-8733984D01*
X10791610Y-8733984D02*
X10772563Y-8733984D01*
X10772563Y-8733984D02*
X10753515Y-8724460D01*
X10753515Y-8724460D02*
X10743991Y-8714936D01*
X10743991Y-8714936D02*
X10734467Y-8695889D01*
X10734467Y-8695889D02*
X10724944Y-8657793D01*
X10724944Y-8657793D02*
X10724944Y-8610174D01*
X10724944Y-8610174D02*
X10734467Y-8572079D01*
X10734467Y-8572079D02*
X10743991Y-8553031D01*
X10743991Y-8553031D02*
X10753515Y-8543508D01*
X10753515Y-8543508D02*
X10772563Y-8533984D01*
X10963039Y-8533984D02*
X10982086Y-8533984D01*
X10982086Y-8533984D02*
X11001134Y-8543508D01*
X11001134Y-8543508D02*
X11010658Y-8553031D01*
X11010658Y-8553031D02*
X11020182Y-8572079D01*
X11020182Y-8572079D02*
X11029705Y-8610174D01*
X11029705Y-8610174D02*
X11029705Y-8657793D01*
X11029705Y-8657793D02*
X11020182Y-8695889D01*
X11020182Y-8695889D02*
X11010658Y-8714936D01*
X11010658Y-8714936D02*
X11001134Y-8724460D01*
X11001134Y-8724460D02*
X10982086Y-8733984D01*
X10982086Y-8733984D02*
X10963039Y-8733984D01*
X10963039Y-8733984D02*
X10943991Y-8724460D01*
X10943991Y-8724460D02*
X10934467Y-8714936D01*
X10934467Y-8714936D02*
X10924944Y-8695889D01*
X10924944Y-8695889D02*
X10915420Y-8657793D01*
X10915420Y-8657793D02*
X10915420Y-8610174D01*
X10915420Y-8610174D02*
X10924944Y-8572079D01*
X10924944Y-8572079D02*
X10934467Y-8553031D01*
X10934467Y-8553031D02*
X10943991Y-8543508D01*
X10943991Y-8543508D02*
X10963039Y-8533984D01*
X11115420Y-8733984D02*
X11115420Y-8600650D01*
X11115420Y-8619698D02*
X11124944Y-8610174D01*
X11124944Y-8610174D02*
X11143991Y-8600650D01*
X11143991Y-8600650D02*
X11172563Y-8600650D01*
X11172563Y-8600650D02*
X11191610Y-8610174D01*
X11191610Y-8610174D02*
X11201134Y-8629222D01*
X11201134Y-8629222D02*
X11201134Y-8733984D01*
X11201134Y-8629222D02*
X11210658Y-8610174D01*
X11210658Y-8610174D02*
X11229705Y-8600650D01*
X11229705Y-8600650D02*
X11258277Y-8600650D01*
X11258277Y-8600650D02*
X11277324Y-8610174D01*
X11277324Y-8610174D02*
X11286848Y-8629222D01*
X11286848Y-8629222D02*
X11286848Y-8733984D01*
X11382086Y-8733984D02*
X11382086Y-8600650D01*
X11382086Y-8619698D02*
X11391610Y-8610174D01*
X11391610Y-8610174D02*
X11410658Y-8600650D01*
X11410658Y-8600650D02*
X11439229Y-8600650D01*
X11439229Y-8600650D02*
X11458277Y-8610174D01*
X11458277Y-8610174D02*
X11467801Y-8629222D01*
X11467801Y-8629222D02*
X11467801Y-8733984D01*
X11467801Y-8629222D02*
X11477324Y-8610174D01*
X11477324Y-8610174D02*
X11496372Y-8600650D01*
X11496372Y-8600650D02*
X11524943Y-8600650D01*
X11524943Y-8600650D02*
X11543991Y-8610174D01*
X11543991Y-8610174D02*
X11553515Y-8629222D01*
X11553515Y-8629222D02*
X11553515Y-8733984D01*
X11943991Y-8524460D02*
X11772563Y-8781603D01*
X12201134Y-8533984D02*
X12220182Y-8533984D01*
X12220182Y-8533984D02*
X12239229Y-8543508D01*
X12239229Y-8543508D02*
X12248753Y-8553031D01*
X12248753Y-8553031D02*
X12258277Y-8572079D01*
X12258277Y-8572079D02*
X12267801Y-8610174D01*
X12267801Y-8610174D02*
X12267801Y-8657793D01*
X12267801Y-8657793D02*
X12258277Y-8695889D01*
X12258277Y-8695889D02*
X12248753Y-8714936D01*
X12248753Y-8714936D02*
X12239229Y-8724460D01*
X12239229Y-8724460D02*
X12220182Y-8733984D01*
X12220182Y-8733984D02*
X12201134Y-8733984D01*
X12201134Y-8733984D02*
X12182086Y-8724460D01*
X12182086Y-8724460D02*
X12172563Y-8714936D01*
X12172563Y-8714936D02*
X12163039Y-8695889D01*
X12163039Y-8695889D02*
X12153515Y-8657793D01*
X12153515Y-8657793D02*
X12153515Y-8610174D01*
X12153515Y-8610174D02*
X12163039Y-8572079D01*
X12163039Y-8572079D02*
X12172563Y-8553031D01*
X12172563Y-8553031D02*
X12182086Y-8543508D01*
X12182086Y-8543508D02*
X12201134Y-8533984D01*
X12353515Y-8714936D02*
X12363039Y-8724460D01*
X12363039Y-8724460D02*
X12353515Y-8733984D01*
X12353515Y-8733984D02*
X12343991Y-8724460D01*
X12343991Y-8724460D02*
X12353515Y-8714936D01*
X12353515Y-8714936D02*
X12353515Y-8733984D01*
X12486848Y-8533984D02*
X12505896Y-8533984D01*
X12505896Y-8533984D02*
X12524944Y-8543508D01*
X12524944Y-8543508D02*
X12534467Y-8553031D01*
X12534467Y-8553031D02*
X12543991Y-8572079D01*
X12543991Y-8572079D02*
X12553515Y-8610174D01*
X12553515Y-8610174D02*
X12553515Y-8657793D01*
X12553515Y-8657793D02*
X12543991Y-8695889D01*
X12543991Y-8695889D02*
X12534467Y-8714936D01*
X12534467Y-8714936D02*
X12524944Y-8724460D01*
X12524944Y-8724460D02*
X12505896Y-8733984D01*
X12505896Y-8733984D02*
X12486848Y-8733984D01*
X12486848Y-8733984D02*
X12467801Y-8724460D01*
X12467801Y-8724460D02*
X12458277Y-8714936D01*
X12458277Y-8714936D02*
X12448753Y-8695889D01*
X12448753Y-8695889D02*
X12439229Y-8657793D01*
X12439229Y-8657793D02*
X12439229Y-8610174D01*
X12439229Y-8610174D02*
X12448753Y-8572079D01*
X12448753Y-8572079D02*
X12458277Y-8553031D01*
X12458277Y-8553031D02*
X12467801Y-8543508D01*
X12467801Y-8543508D02*
X12486848Y-8533984D01*
X12743991Y-8733984D02*
X12629706Y-8733984D01*
X12686848Y-8733984D02*
X12686848Y-8533984D01*
X12686848Y-8533984D02*
X12667801Y-8562555D01*
X12667801Y-8562555D02*
X12648753Y-8581603D01*
X12648753Y-8581603D02*
X12629706Y-8591127D01*
X12934467Y-8733984D02*
X12820182Y-8733984D01*
X12877325Y-8733984D02*
X12877325Y-8533984D01*
X12877325Y-8533984D02*
X12858277Y-8562555D01*
X12858277Y-8562555D02*
X12839229Y-8581603D01*
X12839229Y-8581603D02*
X12820182Y-8591127D01*
X13048753Y-8619698D02*
X13029706Y-8610174D01*
X13029706Y-8610174D02*
X13020182Y-8600650D01*
X13020182Y-8600650D02*
X13010658Y-8581603D01*
X13010658Y-8581603D02*
X13010658Y-8572079D01*
X13010658Y-8572079D02*
X13020182Y-8553031D01*
X13020182Y-8553031D02*
X13029706Y-8543508D01*
X13029706Y-8543508D02*
X13048753Y-8533984D01*
X13048753Y-8533984D02*
X13086848Y-8533984D01*
X13086848Y-8533984D02*
X13105896Y-8543508D01*
X13105896Y-8543508D02*
X13115420Y-8553031D01*
X13115420Y-8553031D02*
X13124944Y-8572079D01*
X13124944Y-8572079D02*
X13124944Y-8581603D01*
X13124944Y-8581603D02*
X13115420Y-8600650D01*
X13115420Y-8600650D02*
X13105896Y-8610174D01*
X13105896Y-8610174D02*
X13086848Y-8619698D01*
X13086848Y-8619698D02*
X13048753Y-8619698D01*
X13048753Y-8619698D02*
X13029706Y-8629222D01*
X13029706Y-8629222D02*
X13020182Y-8638746D01*
X13020182Y-8638746D02*
X13010658Y-8657793D01*
X13010658Y-8657793D02*
X13010658Y-8695889D01*
X13010658Y-8695889D02*
X13020182Y-8714936D01*
X13020182Y-8714936D02*
X13029706Y-8724460D01*
X13029706Y-8724460D02*
X13048753Y-8733984D01*
X13048753Y-8733984D02*
X13086848Y-8733984D01*
X13086848Y-8733984D02*
X13105896Y-8724460D01*
X13105896Y-8724460D02*
X13115420Y-8714936D01*
X13115420Y-8714936D02*
X13124944Y-8695889D01*
X13124944Y-8695889D02*
X13124944Y-8657793D01*
X13124944Y-8657793D02*
X13115420Y-8638746D01*
X13115420Y-8638746D02*
X13105896Y-8629222D01*
X13105896Y-8629222D02*
X13086848Y-8619698D01*
X13201134Y-8533984D02*
X13201134Y-8572079D01*
X13277325Y-8533984D02*
X13277325Y-8572079D01*
X13572563Y-8810174D02*
X13563039Y-8800650D01*
X13563039Y-8800650D02*
X13543991Y-8772079D01*
X13543991Y-8772079D02*
X13534468Y-8753031D01*
X13534468Y-8753031D02*
X13524944Y-8724460D01*
X13524944Y-8724460D02*
X13515420Y-8676841D01*
X13515420Y-8676841D02*
X13515420Y-8638746D01*
X13515420Y-8638746D02*
X13524944Y-8591127D01*
X13524944Y-8591127D02*
X13534468Y-8562555D01*
X13534468Y-8562555D02*
X13543991Y-8543508D01*
X13543991Y-8543508D02*
X13563039Y-8514936D01*
X13563039Y-8514936D02*
X13572563Y-8505412D01*
X13639229Y-8553031D02*
X13648753Y-8543508D01*
X13648753Y-8543508D02*
X13667801Y-8533984D01*
X13667801Y-8533984D02*
X13715420Y-8533984D01*
X13715420Y-8533984D02*
X13734468Y-8543508D01*
X13734468Y-8543508D02*
X13743991Y-8553031D01*
X13743991Y-8553031D02*
X13753515Y-8572079D01*
X13753515Y-8572079D02*
X13753515Y-8591127D01*
X13753515Y-8591127D02*
X13743991Y-8619698D01*
X13743991Y-8619698D02*
X13629706Y-8733984D01*
X13629706Y-8733984D02*
X13753515Y-8733984D01*
X13820182Y-8533984D02*
X13953515Y-8533984D01*
X13953515Y-8533984D02*
X13867801Y-8733984D01*
X14182087Y-8733984D02*
X14182087Y-8533984D01*
X14267801Y-8733984D02*
X14267801Y-8629222D01*
X14267801Y-8629222D02*
X14258277Y-8610174D01*
X14258277Y-8610174D02*
X14239230Y-8600650D01*
X14239230Y-8600650D02*
X14210658Y-8600650D01*
X14210658Y-8600650D02*
X14191610Y-8610174D01*
X14191610Y-8610174D02*
X14182087Y-8619698D01*
X14391610Y-8733984D02*
X14372563Y-8724460D01*
X14372563Y-8724460D02*
X14363039Y-8714936D01*
X14363039Y-8714936D02*
X14353515Y-8695889D01*
X14353515Y-8695889D02*
X14353515Y-8638746D01*
X14353515Y-8638746D02*
X14363039Y-8619698D01*
X14363039Y-8619698D02*
X14372563Y-8610174D01*
X14372563Y-8610174D02*
X14391610Y-8600650D01*
X14391610Y-8600650D02*
X14420182Y-8600650D01*
X14420182Y-8600650D02*
X14439230Y-8610174D01*
X14439230Y-8610174D02*
X14448753Y-8619698D01*
X14448753Y-8619698D02*
X14458277Y-8638746D01*
X14458277Y-8638746D02*
X14458277Y-8695889D01*
X14458277Y-8695889D02*
X14448753Y-8714936D01*
X14448753Y-8714936D02*
X14439230Y-8724460D01*
X14439230Y-8724460D02*
X14420182Y-8733984D01*
X14420182Y-8733984D02*
X14391610Y-8733984D01*
X14572563Y-8733984D02*
X14553515Y-8724460D01*
X14553515Y-8724460D02*
X14543991Y-8705412D01*
X14543991Y-8705412D02*
X14543991Y-8533984D01*
X14724944Y-8724460D02*
X14705896Y-8733984D01*
X14705896Y-8733984D02*
X14667801Y-8733984D01*
X14667801Y-8733984D02*
X14648753Y-8724460D01*
X14648753Y-8724460D02*
X14639230Y-8705412D01*
X14639230Y-8705412D02*
X14639230Y-8629222D01*
X14639230Y-8629222D02*
X14648753Y-8610174D01*
X14648753Y-8610174D02*
X14667801Y-8600650D01*
X14667801Y-8600650D02*
X14705896Y-8600650D01*
X14705896Y-8600650D02*
X14724944Y-8610174D01*
X14724944Y-8610174D02*
X14734468Y-8629222D01*
X14734468Y-8629222D02*
X14734468Y-8648270D01*
X14734468Y-8648270D02*
X14639230Y-8667317D01*
X14810658Y-8724460D02*
X14829706Y-8733984D01*
X14829706Y-8733984D02*
X14867801Y-8733984D01*
X14867801Y-8733984D02*
X14886849Y-8724460D01*
X14886849Y-8724460D02*
X14896372Y-8705412D01*
X14896372Y-8705412D02*
X14896372Y-8695889D01*
X14896372Y-8695889D02*
X14886849Y-8676841D01*
X14886849Y-8676841D02*
X14867801Y-8667317D01*
X14867801Y-8667317D02*
X14839230Y-8667317D01*
X14839230Y-8667317D02*
X14820182Y-8657793D01*
X14820182Y-8657793D02*
X14810658Y-8638746D01*
X14810658Y-8638746D02*
X14810658Y-8629222D01*
X14810658Y-8629222D02*
X14820182Y-8610174D01*
X14820182Y-8610174D02*
X14839230Y-8600650D01*
X14839230Y-8600650D02*
X14867801Y-8600650D01*
X14867801Y-8600650D02*
X14886849Y-8610174D01*
X14963039Y-8810174D02*
X14972563Y-8800650D01*
X14972563Y-8800650D02*
X14991611Y-8772079D01*
X14991611Y-8772079D02*
X15001134Y-8753031D01*
X15001134Y-8753031D02*
X15010658Y-8724460D01*
X15010658Y-8724460D02*
X15020182Y-8676841D01*
X15020182Y-8676841D02*
X15020182Y-8638746D01*
X15020182Y-8638746D02*
X15010658Y-8591127D01*
X15010658Y-8591127D02*
X15001134Y-8562555D01*
X15001134Y-8562555D02*
X14991611Y-8543508D01*
X14991611Y-8543508D02*
X14972563Y-8514936D01*
X14972563Y-8514936D02*
X14963039Y-8505412D01*
D12*
X9997500Y-8906500D02*
G75*
G02*
X9907500Y-8906500I-45000J0D01*
G01*
X9907500Y-8906500D02*
G75*
G02*
X9997500Y-8906500I45000J0D01*
G01*
D11*
X10296372Y-8797984D02*
X10315420Y-8797984D01*
X10315420Y-8797984D02*
X10334467Y-8807508D01*
X10334467Y-8807508D02*
X10343991Y-8817031D01*
X10343991Y-8817031D02*
X10353515Y-8836079D01*
X10353515Y-8836079D02*
X10363039Y-8874174D01*
X10363039Y-8874174D02*
X10363039Y-8921793D01*
X10363039Y-8921793D02*
X10353515Y-8959889D01*
X10353515Y-8959889D02*
X10343991Y-8978936D01*
X10343991Y-8978936D02*
X10334467Y-8988460D01*
X10334467Y-8988460D02*
X10315420Y-8997984D01*
X10315420Y-8997984D02*
X10296372Y-8997984D01*
X10296372Y-8997984D02*
X10277324Y-8988460D01*
X10277324Y-8988460D02*
X10267801Y-8978936D01*
X10267801Y-8978936D02*
X10258277Y-8959889D01*
X10258277Y-8959889D02*
X10248753Y-8921793D01*
X10248753Y-8921793D02*
X10248753Y-8874174D01*
X10248753Y-8874174D02*
X10258277Y-8836079D01*
X10258277Y-8836079D02*
X10267801Y-8817031D01*
X10267801Y-8817031D02*
X10277324Y-8807508D01*
X10277324Y-8807508D02*
X10296372Y-8797984D01*
X10448753Y-8978936D02*
X10458277Y-8988460D01*
X10458277Y-8988460D02*
X10448753Y-8997984D01*
X10448753Y-8997984D02*
X10439229Y-8988460D01*
X10439229Y-8988460D02*
X10448753Y-8978936D01*
X10448753Y-8978936D02*
X10448753Y-8997984D01*
X10553515Y-8997984D02*
X10591610Y-8997984D01*
X10591610Y-8997984D02*
X10610658Y-8988460D01*
X10610658Y-8988460D02*
X10620182Y-8978936D01*
X10620182Y-8978936D02*
X10639229Y-8950365D01*
X10639229Y-8950365D02*
X10648753Y-8912270D01*
X10648753Y-8912270D02*
X10648753Y-8836079D01*
X10648753Y-8836079D02*
X10639229Y-8817031D01*
X10639229Y-8817031D02*
X10629705Y-8807508D01*
X10629705Y-8807508D02*
X10610658Y-8797984D01*
X10610658Y-8797984D02*
X10572563Y-8797984D01*
X10572563Y-8797984D02*
X10553515Y-8807508D01*
X10553515Y-8807508D02*
X10543991Y-8817031D01*
X10543991Y-8817031D02*
X10534467Y-8836079D01*
X10534467Y-8836079D02*
X10534467Y-8883698D01*
X10534467Y-8883698D02*
X10543991Y-8902746D01*
X10543991Y-8902746D02*
X10553515Y-8912270D01*
X10553515Y-8912270D02*
X10572563Y-8921793D01*
X10572563Y-8921793D02*
X10610658Y-8921793D01*
X10610658Y-8921793D02*
X10629705Y-8912270D01*
X10629705Y-8912270D02*
X10639229Y-8902746D01*
X10639229Y-8902746D02*
X10648753Y-8883698D01*
X10772563Y-8797984D02*
X10791610Y-8797984D01*
X10791610Y-8797984D02*
X10810658Y-8807508D01*
X10810658Y-8807508D02*
X10820182Y-8817031D01*
X10820182Y-8817031D02*
X10829705Y-8836079D01*
X10829705Y-8836079D02*
X10839229Y-8874174D01*
X10839229Y-8874174D02*
X10839229Y-8921793D01*
X10839229Y-8921793D02*
X10829705Y-8959889D01*
X10829705Y-8959889D02*
X10820182Y-8978936D01*
X10820182Y-8978936D02*
X10810658Y-8988460D01*
X10810658Y-8988460D02*
X10791610Y-8997984D01*
X10791610Y-8997984D02*
X10772563Y-8997984D01*
X10772563Y-8997984D02*
X10753515Y-8988460D01*
X10753515Y-8988460D02*
X10743991Y-8978936D01*
X10743991Y-8978936D02*
X10734467Y-8959889D01*
X10734467Y-8959889D02*
X10724944Y-8921793D01*
X10724944Y-8921793D02*
X10724944Y-8874174D01*
X10724944Y-8874174D02*
X10734467Y-8836079D01*
X10734467Y-8836079D02*
X10743991Y-8817031D01*
X10743991Y-8817031D02*
X10753515Y-8807508D01*
X10753515Y-8807508D02*
X10772563Y-8797984D01*
X10963039Y-8797984D02*
X10982086Y-8797984D01*
X10982086Y-8797984D02*
X11001134Y-8807508D01*
X11001134Y-8807508D02*
X11010658Y-8817031D01*
X11010658Y-8817031D02*
X11020182Y-8836079D01*
X11020182Y-8836079D02*
X11029705Y-8874174D01*
X11029705Y-8874174D02*
X11029705Y-8921793D01*
X11029705Y-8921793D02*
X11020182Y-8959889D01*
X11020182Y-8959889D02*
X11010658Y-8978936D01*
X11010658Y-8978936D02*
X11001134Y-8988460D01*
X11001134Y-8988460D02*
X10982086Y-8997984D01*
X10982086Y-8997984D02*
X10963039Y-8997984D01*
X10963039Y-8997984D02*
X10943991Y-8988460D01*
X10943991Y-8988460D02*
X10934467Y-8978936D01*
X10934467Y-8978936D02*
X10924944Y-8959889D01*
X10924944Y-8959889D02*
X10915420Y-8921793D01*
X10915420Y-8921793D02*
X10915420Y-8874174D01*
X10915420Y-8874174D02*
X10924944Y-8836079D01*
X10924944Y-8836079D02*
X10934467Y-8817031D01*
X10934467Y-8817031D02*
X10943991Y-8807508D01*
X10943991Y-8807508D02*
X10963039Y-8797984D01*
X11115420Y-8997984D02*
X11115420Y-8864650D01*
X11115420Y-8883698D02*
X11124944Y-8874174D01*
X11124944Y-8874174D02*
X11143991Y-8864650D01*
X11143991Y-8864650D02*
X11172563Y-8864650D01*
X11172563Y-8864650D02*
X11191610Y-8874174D01*
X11191610Y-8874174D02*
X11201134Y-8893222D01*
X11201134Y-8893222D02*
X11201134Y-8997984D01*
X11201134Y-8893222D02*
X11210658Y-8874174D01*
X11210658Y-8874174D02*
X11229705Y-8864650D01*
X11229705Y-8864650D02*
X11258277Y-8864650D01*
X11258277Y-8864650D02*
X11277324Y-8874174D01*
X11277324Y-8874174D02*
X11286848Y-8893222D01*
X11286848Y-8893222D02*
X11286848Y-8997984D01*
X11382086Y-8997984D02*
X11382086Y-8864650D01*
X11382086Y-8883698D02*
X11391610Y-8874174D01*
X11391610Y-8874174D02*
X11410658Y-8864650D01*
X11410658Y-8864650D02*
X11439229Y-8864650D01*
X11439229Y-8864650D02*
X11458277Y-8874174D01*
X11458277Y-8874174D02*
X11467801Y-8893222D01*
X11467801Y-8893222D02*
X11467801Y-8997984D01*
X11467801Y-8893222D02*
X11477324Y-8874174D01*
X11477324Y-8874174D02*
X11496372Y-8864650D01*
X11496372Y-8864650D02*
X11524943Y-8864650D01*
X11524943Y-8864650D02*
X11543991Y-8874174D01*
X11543991Y-8874174D02*
X11553515Y-8893222D01*
X11553515Y-8893222D02*
X11553515Y-8997984D01*
X11943991Y-8788460D02*
X11772563Y-9045603D01*
X12201134Y-8797984D02*
X12220182Y-8797984D01*
X12220182Y-8797984D02*
X12239229Y-8807508D01*
X12239229Y-8807508D02*
X12248753Y-8817031D01*
X12248753Y-8817031D02*
X12258277Y-8836079D01*
X12258277Y-8836079D02*
X12267801Y-8874174D01*
X12267801Y-8874174D02*
X12267801Y-8921793D01*
X12267801Y-8921793D02*
X12258277Y-8959889D01*
X12258277Y-8959889D02*
X12248753Y-8978936D01*
X12248753Y-8978936D02*
X12239229Y-8988460D01*
X12239229Y-8988460D02*
X12220182Y-8997984D01*
X12220182Y-8997984D02*
X12201134Y-8997984D01*
X12201134Y-8997984D02*
X12182086Y-8988460D01*
X12182086Y-8988460D02*
X12172563Y-8978936D01*
X12172563Y-8978936D02*
X12163039Y-8959889D01*
X12163039Y-8959889D02*
X12153515Y-8921793D01*
X12153515Y-8921793D02*
X12153515Y-8874174D01*
X12153515Y-8874174D02*
X12163039Y-8836079D01*
X12163039Y-8836079D02*
X12172563Y-8817031D01*
X12172563Y-8817031D02*
X12182086Y-8807508D01*
X12182086Y-8807508D02*
X12201134Y-8797984D01*
X12353515Y-8978936D02*
X12363039Y-8988460D01*
X12363039Y-8988460D02*
X12353515Y-8997984D01*
X12353515Y-8997984D02*
X12343991Y-8988460D01*
X12343991Y-8988460D02*
X12353515Y-8978936D01*
X12353515Y-8978936D02*
X12353515Y-8997984D01*
X12486848Y-8797984D02*
X12505896Y-8797984D01*
X12505896Y-8797984D02*
X12524944Y-8807508D01*
X12524944Y-8807508D02*
X12534467Y-8817031D01*
X12534467Y-8817031D02*
X12543991Y-8836079D01*
X12543991Y-8836079D02*
X12553515Y-8874174D01*
X12553515Y-8874174D02*
X12553515Y-8921793D01*
X12553515Y-8921793D02*
X12543991Y-8959889D01*
X12543991Y-8959889D02*
X12534467Y-8978936D01*
X12534467Y-8978936D02*
X12524944Y-8988460D01*
X12524944Y-8988460D02*
X12505896Y-8997984D01*
X12505896Y-8997984D02*
X12486848Y-8997984D01*
X12486848Y-8997984D02*
X12467801Y-8988460D01*
X12467801Y-8988460D02*
X12458277Y-8978936D01*
X12458277Y-8978936D02*
X12448753Y-8959889D01*
X12448753Y-8959889D02*
X12439229Y-8921793D01*
X12439229Y-8921793D02*
X12439229Y-8874174D01*
X12439229Y-8874174D02*
X12448753Y-8836079D01*
X12448753Y-8836079D02*
X12458277Y-8817031D01*
X12458277Y-8817031D02*
X12467801Y-8807508D01*
X12467801Y-8807508D02*
X12486848Y-8797984D01*
X12620182Y-8797984D02*
X12743991Y-8797984D01*
X12743991Y-8797984D02*
X12677325Y-8874174D01*
X12677325Y-8874174D02*
X12705896Y-8874174D01*
X12705896Y-8874174D02*
X12724944Y-8883698D01*
X12724944Y-8883698D02*
X12734467Y-8893222D01*
X12734467Y-8893222D02*
X12743991Y-8912270D01*
X12743991Y-8912270D02*
X12743991Y-8959889D01*
X12743991Y-8959889D02*
X12734467Y-8978936D01*
X12734467Y-8978936D02*
X12724944Y-8988460D01*
X12724944Y-8988460D02*
X12705896Y-8997984D01*
X12705896Y-8997984D02*
X12648753Y-8997984D01*
X12648753Y-8997984D02*
X12629706Y-8988460D01*
X12629706Y-8988460D02*
X12620182Y-8978936D01*
X12924944Y-8797984D02*
X12829706Y-8797984D01*
X12829706Y-8797984D02*
X12820182Y-8893222D01*
X12820182Y-8893222D02*
X12829706Y-8883698D01*
X12829706Y-8883698D02*
X12848753Y-8874174D01*
X12848753Y-8874174D02*
X12896372Y-8874174D01*
X12896372Y-8874174D02*
X12915420Y-8883698D01*
X12915420Y-8883698D02*
X12924944Y-8893222D01*
X12924944Y-8893222D02*
X12934467Y-8912270D01*
X12934467Y-8912270D02*
X12934467Y-8959889D01*
X12934467Y-8959889D02*
X12924944Y-8978936D01*
X12924944Y-8978936D02*
X12915420Y-8988460D01*
X12915420Y-8988460D02*
X12896372Y-8997984D01*
X12896372Y-8997984D02*
X12848753Y-8997984D01*
X12848753Y-8997984D02*
X12829706Y-8988460D01*
X12829706Y-8988460D02*
X12820182Y-8978936D01*
X13105896Y-8864650D02*
X13105896Y-8997984D01*
X13058277Y-8788460D02*
X13010658Y-8931317D01*
X13010658Y-8931317D02*
X13134467Y-8931317D01*
X13201134Y-8797984D02*
X13201134Y-8836079D01*
X13277325Y-8797984D02*
X13277325Y-8836079D01*
X13572563Y-9074174D02*
X13563039Y-9064650D01*
X13563039Y-9064650D02*
X13543991Y-9036079D01*
X13543991Y-9036079D02*
X13534468Y-9017031D01*
X13534468Y-9017031D02*
X13524944Y-8988460D01*
X13524944Y-8988460D02*
X13515420Y-8940841D01*
X13515420Y-8940841D02*
X13515420Y-8902746D01*
X13515420Y-8902746D02*
X13524944Y-8855127D01*
X13524944Y-8855127D02*
X13534468Y-8826555D01*
X13534468Y-8826555D02*
X13543991Y-8807508D01*
X13543991Y-8807508D02*
X13563039Y-8778936D01*
X13563039Y-8778936D02*
X13572563Y-8769412D01*
X13734468Y-8797984D02*
X13696372Y-8797984D01*
X13696372Y-8797984D02*
X13677325Y-8807508D01*
X13677325Y-8807508D02*
X13667801Y-8817031D01*
X13667801Y-8817031D02*
X13648753Y-8845603D01*
X13648753Y-8845603D02*
X13639229Y-8883698D01*
X13639229Y-8883698D02*
X13639229Y-8959889D01*
X13639229Y-8959889D02*
X13648753Y-8978936D01*
X13648753Y-8978936D02*
X13658277Y-8988460D01*
X13658277Y-8988460D02*
X13677325Y-8997984D01*
X13677325Y-8997984D02*
X13715420Y-8997984D01*
X13715420Y-8997984D02*
X13734468Y-8988460D01*
X13734468Y-8988460D02*
X13743991Y-8978936D01*
X13743991Y-8978936D02*
X13753515Y-8959889D01*
X13753515Y-8959889D02*
X13753515Y-8912270D01*
X13753515Y-8912270D02*
X13743991Y-8893222D01*
X13743991Y-8893222D02*
X13734468Y-8883698D01*
X13734468Y-8883698D02*
X13715420Y-8874174D01*
X13715420Y-8874174D02*
X13677325Y-8874174D01*
X13677325Y-8874174D02*
X13658277Y-8883698D01*
X13658277Y-8883698D02*
X13648753Y-8893222D01*
X13648753Y-8893222D02*
X13639229Y-8912270D01*
X13991610Y-8997984D02*
X13991610Y-8797984D01*
X14077325Y-8997984D02*
X14077325Y-8893222D01*
X14077325Y-8893222D02*
X14067801Y-8874174D01*
X14067801Y-8874174D02*
X14048753Y-8864650D01*
X14048753Y-8864650D02*
X14020182Y-8864650D01*
X14020182Y-8864650D02*
X14001134Y-8874174D01*
X14001134Y-8874174D02*
X13991610Y-8883698D01*
X14201134Y-8997984D02*
X14182087Y-8988460D01*
X14182087Y-8988460D02*
X14172563Y-8978936D01*
X14172563Y-8978936D02*
X14163039Y-8959889D01*
X14163039Y-8959889D02*
X14163039Y-8902746D01*
X14163039Y-8902746D02*
X14172563Y-8883698D01*
X14172563Y-8883698D02*
X14182087Y-8874174D01*
X14182087Y-8874174D02*
X14201134Y-8864650D01*
X14201134Y-8864650D02*
X14229706Y-8864650D01*
X14229706Y-8864650D02*
X14248753Y-8874174D01*
X14248753Y-8874174D02*
X14258277Y-8883698D01*
X14258277Y-8883698D02*
X14267801Y-8902746D01*
X14267801Y-8902746D02*
X14267801Y-8959889D01*
X14267801Y-8959889D02*
X14258277Y-8978936D01*
X14258277Y-8978936D02*
X14248753Y-8988460D01*
X14248753Y-8988460D02*
X14229706Y-8997984D01*
X14229706Y-8997984D02*
X14201134Y-8997984D01*
X14382087Y-8997984D02*
X14363039Y-8988460D01*
X14363039Y-8988460D02*
X14353515Y-8969412D01*
X14353515Y-8969412D02*
X14353515Y-8797984D01*
X14534468Y-8988460D02*
X14515420Y-8997984D01*
X14515420Y-8997984D02*
X14477325Y-8997984D01*
X14477325Y-8997984D02*
X14458277Y-8988460D01*
X14458277Y-8988460D02*
X14448753Y-8969412D01*
X14448753Y-8969412D02*
X14448753Y-8893222D01*
X14448753Y-8893222D02*
X14458277Y-8874174D01*
X14458277Y-8874174D02*
X14477325Y-8864650D01*
X14477325Y-8864650D02*
X14515420Y-8864650D01*
X14515420Y-8864650D02*
X14534468Y-8874174D01*
X14534468Y-8874174D02*
X14543991Y-8893222D01*
X14543991Y-8893222D02*
X14543991Y-8912270D01*
X14543991Y-8912270D02*
X14448753Y-8931317D01*
X14620182Y-8988460D02*
X14639230Y-8997984D01*
X14639230Y-8997984D02*
X14677325Y-8997984D01*
X14677325Y-8997984D02*
X14696372Y-8988460D01*
X14696372Y-8988460D02*
X14705896Y-8969412D01*
X14705896Y-8969412D02*
X14705896Y-8959889D01*
X14705896Y-8959889D02*
X14696372Y-8940841D01*
X14696372Y-8940841D02*
X14677325Y-8931317D01*
X14677325Y-8931317D02*
X14648753Y-8931317D01*
X14648753Y-8931317D02*
X14629706Y-8921793D01*
X14629706Y-8921793D02*
X14620182Y-8902746D01*
X14620182Y-8902746D02*
X14620182Y-8893222D01*
X14620182Y-8893222D02*
X14629706Y-8874174D01*
X14629706Y-8874174D02*
X14648753Y-8864650D01*
X14648753Y-8864650D02*
X14677325Y-8864650D01*
X14677325Y-8864650D02*
X14696372Y-8874174D01*
X14772563Y-9074174D02*
X14782087Y-9064650D01*
X14782087Y-9064650D02*
X14801134Y-9036079D01*
X14801134Y-9036079D02*
X14810658Y-9017031D01*
X14810658Y-9017031D02*
X14820182Y-8988460D01*
X14820182Y-8988460D02*
X14829706Y-8940841D01*
X14829706Y-8940841D02*
X14829706Y-8902746D01*
X14829706Y-8902746D02*
X14820182Y-8855127D01*
X14820182Y-8855127D02*
X14810658Y-8826555D01*
X14810658Y-8826555D02*
X14801134Y-8807508D01*
X14801134Y-8807508D02*
X14782087Y-8778936D01*
X14782087Y-8778936D02*
X14772563Y-8769412D01*
M02*
