%TF.GenerationSoftware,KiCad,Pcbnew,8.0.3*%
%TF.CreationDate,2024-07-24T17:03:38+02:00*%
%TF.ProjectId,T10_LED_lamp,5431305f-4c45-4445-9f6c-616d702e6b69,rev?*%
%TF.SameCoordinates,Original*%
%TF.FileFunction,Soldermask,Bot*%
%TF.FilePolarity,Negative*%
%FSLAX46Y46*%
G04 Gerber Fmt 4.6, Leading zero omitted, Abs format (unit mm)*
G04 Created by KiCad (PCBNEW 8.0.3) date 2024-07-24 17:03:38*
%MOMM*%
%LPD*%
G01*
G04 APERTURE LIST*
G04 Aperture macros list*
%AMRoundRect*
0 Rectangle with rounded corners*
0 $1 Rounding radius*
0 $2 $3 $4 $5 $6 $7 $8 $9 X,Y pos of 4 corners*
0 Add a 4 corners polygon primitive as box body*
4,1,4,$2,$3,$4,$5,$6,$7,$8,$9,$2,$3,0*
0 Add four circle primitives for the rounded corners*
1,1,$1+$1,$2,$3*
1,1,$1+$1,$4,$5*
1,1,$1+$1,$6,$7*
1,1,$1+$1,$8,$9*
0 Add four rect primitives between the rounded corners*
20,1,$1+$1,$2,$3,$4,$5,0*
20,1,$1+$1,$4,$5,$6,$7,0*
20,1,$1+$1,$6,$7,$8,$9,0*
20,1,$1+$1,$8,$9,$2,$3,0*%
G04 Aperture macros list end*
%ADD10C,0.100000*%
%ADD11R,1.800000X1.800000*%
%ADD12C,1.800000*%
%ADD13RoundRect,0.100000X-0.100000X0.712500X-0.100000X-0.712500X0.100000X-0.712500X0.100000X0.712500X0*%
%ADD14RoundRect,0.250000X0.450000X-0.350000X0.450000X0.350000X-0.450000X0.350000X-0.450000X-0.350000X0*%
%ADD15RoundRect,0.200000X-0.200000X0.750000X-0.200000X-0.750000X0.200000X-0.750000X0.200000X0.750000X0*%
%ADD16RoundRect,0.250000X-0.250000X-0.475000X0.250000X-0.475000X0.250000X0.475000X-0.250000X0.475000X0*%
%ADD17RoundRect,0.250000X0.250000X0.475000X-0.250000X0.475000X-0.250000X-0.475000X0.250000X-0.475000X0*%
G04 APERTURE END LIST*
D10*
X106000000Y-74250000D02*
X109200000Y-74250000D01*
X109200000Y-80000000D01*
X106000000Y-80000000D01*
X106000000Y-74250000D01*
G36*
X106000000Y-74250000D02*
G01*
X109200000Y-74250000D01*
X109200000Y-80000000D01*
X106000000Y-80000000D01*
X106000000Y-74250000D01*
G37*
X100800000Y-74250000D02*
X104000000Y-74250000D01*
X104000000Y-80000000D01*
X100800000Y-80000000D01*
X100800000Y-74250000D01*
G36*
X100800000Y-74250000D02*
G01*
X104000000Y-74250000D01*
X104000000Y-80000000D01*
X100800000Y-80000000D01*
X100800000Y-74250000D01*
G37*
D11*
%TO.C,DL2*%
X105000000Y-68500000D03*
D12*
X105000000Y-71040000D03*
%TD*%
D11*
%TO.C,DL1*%
X105000000Y-62000000D03*
D12*
X105000000Y-64540000D03*
%TD*%
D11*
%TO.C,DL3*%
X105000000Y-55500000D03*
D12*
X105000000Y-58040000D03*
%TD*%
D13*
%TO.C,U1*%
X106925000Y-60787500D03*
X107575000Y-60787500D03*
X108225000Y-60787500D03*
X108875000Y-60787500D03*
X108875000Y-65012500D03*
X108225000Y-65012500D03*
X107575000Y-65012500D03*
X106925000Y-65012500D03*
%TD*%
D14*
%TO.C,R3*%
X102000000Y-59000000D03*
X102000000Y-57000000D03*
%TD*%
D15*
%TO.C,D2*%
X106950000Y-70800000D03*
X108850000Y-70800000D03*
X107900000Y-73800000D03*
%TD*%
D16*
%TO.C,C2*%
X107050000Y-58000000D03*
X108950000Y-58000000D03*
%TD*%
D15*
%TO.C,D1*%
X101150000Y-70800000D03*
X103050000Y-70800000D03*
X102100000Y-73800000D03*
%TD*%
D17*
%TO.C,C1*%
X108900000Y-68300000D03*
X107000000Y-68300000D03*
%TD*%
M02*
