%TF.GenerationSoftware,KiCad,Pcbnew,8.0.3*%
%TF.CreationDate,2024-07-24T17:03:47+02:00*%
%TF.ProjectId,T10_LED_lamp,5431305f-4c45-4445-9f6c-616d702e6b69,rev?*%
%TF.SameCoordinates,Original*%
%TF.FileFunction,Drillmap*%
%TF.FilePolarity,Positive*%
%FSLAX45Y45*%
G04 Gerber Fmt 4.5, Leading zero omitted, Abs format (unit mm)*
G04 Created by KiCad (PCBNEW 8.0.3) date 2024-07-24 17:03:47*
%MOMM*%
%LPD*%
G01*
G04 APERTURE LIST*
%ADD10C,0.050000*%
%ADD11C,0.200000*%
G04 APERTURE END LIST*
D10*
X10050000Y-7450000D02*
X10050000Y-8000000D01*
X10100000Y-5400000D02*
X10900000Y-5400000D01*
X10950000Y-7450000D02*
G75*
G02*
X11000000Y-7400000I50000J0D01*
G01*
X10900350Y-5399650D02*
G75*
G02*
X11000350Y-5499650I-350J-100350D01*
G01*
X11000000Y-5500000D02*
X11000000Y-7400000D01*
X10000000Y-7400000D02*
X10000000Y-5500000D01*
X10950000Y-7450000D02*
X10950000Y-8000000D01*
X10000000Y-5500000D02*
G75*
G02*
X10100000Y-5400000I100000J0D01*
G01*
X10950000Y-8000000D02*
X10050000Y-8000000D01*
X10000000Y-7400000D02*
G75*
G02*
X10050000Y-7450000I0J-50000D01*
G01*
D11*
X10258277Y-8313984D02*
X10258277Y-8113984D01*
X10258277Y-8113984D02*
X10305896Y-8113984D01*
X10305896Y-8113984D02*
X10334467Y-8123508D01*
X10334467Y-8123508D02*
X10353515Y-8142555D01*
X10353515Y-8142555D02*
X10363039Y-8161603D01*
X10363039Y-8161603D02*
X10372563Y-8199698D01*
X10372563Y-8199698D02*
X10372563Y-8228269D01*
X10372563Y-8228269D02*
X10363039Y-8266365D01*
X10363039Y-8266365D02*
X10353515Y-8285412D01*
X10353515Y-8285412D02*
X10334467Y-8304460D01*
X10334467Y-8304460D02*
X10305896Y-8313984D01*
X10305896Y-8313984D02*
X10258277Y-8313984D01*
X10458277Y-8313984D02*
X10458277Y-8180650D01*
X10458277Y-8218746D02*
X10467801Y-8199698D01*
X10467801Y-8199698D02*
X10477324Y-8190174D01*
X10477324Y-8190174D02*
X10496372Y-8180650D01*
X10496372Y-8180650D02*
X10515420Y-8180650D01*
X10582086Y-8313984D02*
X10582086Y-8180650D01*
X10582086Y-8113984D02*
X10572563Y-8123508D01*
X10572563Y-8123508D02*
X10582086Y-8133031D01*
X10582086Y-8133031D02*
X10591610Y-8123508D01*
X10591610Y-8123508D02*
X10582086Y-8113984D01*
X10582086Y-8113984D02*
X10582086Y-8133031D01*
X10705896Y-8313984D02*
X10686848Y-8304460D01*
X10686848Y-8304460D02*
X10677324Y-8285412D01*
X10677324Y-8285412D02*
X10677324Y-8113984D01*
X10810658Y-8313984D02*
X10791610Y-8304460D01*
X10791610Y-8304460D02*
X10782086Y-8285412D01*
X10782086Y-8285412D02*
X10782086Y-8113984D01*
X11039229Y-8313984D02*
X11039229Y-8113984D01*
X11039229Y-8113984D02*
X11105896Y-8256841D01*
X11105896Y-8256841D02*
X11172563Y-8113984D01*
X11172563Y-8113984D02*
X11172563Y-8313984D01*
X11353515Y-8313984D02*
X11353515Y-8209222D01*
X11353515Y-8209222D02*
X11343991Y-8190174D01*
X11343991Y-8190174D02*
X11324943Y-8180650D01*
X11324943Y-8180650D02*
X11286848Y-8180650D01*
X11286848Y-8180650D02*
X11267801Y-8190174D01*
X11353515Y-8304460D02*
X11334467Y-8313984D01*
X11334467Y-8313984D02*
X11286848Y-8313984D01*
X11286848Y-8313984D02*
X11267801Y-8304460D01*
X11267801Y-8304460D02*
X11258277Y-8285412D01*
X11258277Y-8285412D02*
X11258277Y-8266365D01*
X11258277Y-8266365D02*
X11267801Y-8247317D01*
X11267801Y-8247317D02*
X11286848Y-8237793D01*
X11286848Y-8237793D02*
X11334467Y-8237793D01*
X11334467Y-8237793D02*
X11353515Y-8228269D01*
X11448753Y-8180650D02*
X11448753Y-8380650D01*
X11448753Y-8190174D02*
X11467801Y-8180650D01*
X11467801Y-8180650D02*
X11505896Y-8180650D01*
X11505896Y-8180650D02*
X11524943Y-8190174D01*
X11524943Y-8190174D02*
X11534467Y-8199698D01*
X11534467Y-8199698D02*
X11543991Y-8218746D01*
X11543991Y-8218746D02*
X11543991Y-8275888D01*
X11543991Y-8275888D02*
X11534467Y-8294936D01*
X11534467Y-8294936D02*
X11524943Y-8304460D01*
X11524943Y-8304460D02*
X11505896Y-8313984D01*
X11505896Y-8313984D02*
X11467801Y-8313984D01*
X11467801Y-8313984D02*
X11448753Y-8304460D01*
X11629705Y-8294936D02*
X11639229Y-8304460D01*
X11639229Y-8304460D02*
X11629705Y-8313984D01*
X11629705Y-8313984D02*
X11620182Y-8304460D01*
X11620182Y-8304460D02*
X11629705Y-8294936D01*
X11629705Y-8294936D02*
X11629705Y-8313984D01*
X11629705Y-8190174D02*
X11639229Y-8199698D01*
X11639229Y-8199698D02*
X11629705Y-8209222D01*
X11629705Y-8209222D02*
X11620182Y-8199698D01*
X11620182Y-8199698D02*
X11629705Y-8190174D01*
X11629705Y-8190174D02*
X11629705Y-8209222D01*
M02*
