M48
; DRILL file {KiCad 8.0.3} date 2024-07-24T17:03:45+0200
; FORMAT={-:-/ absolute / metric / decimal}
; #@! TF.CreationDate,2024-07-24T17:03:45+02:00
; #@! TF.GenerationSoftware,Kicad,Pcbnew,8.0.3
; #@! TF.FileFunction,Plated,1,2,PTH
FMAT,2
METRIC
; #@! TA.AperFunction,Plated,PTH,ViaDrill
T1C0.300
; #@! TA.AperFunction,Plated,PTH,ComponentDrill
T2C0.900
%
G90
G05
T1
X101.0Y-54.9
X101.0Y-64.0
X101.0Y-66.0
X101.0Y-68.0
X101.0Y-73.0
X101.5Y-75.5
X101.5Y-77.5
X101.5Y-79.4
X102.5Y-62.0
X102.5Y-64.0
X102.5Y-66.0
X102.5Y-68.0
X103.5Y-75.5
X103.5Y-77.5
X103.5Y-79.4
X105.0Y-73.5
X106.5Y-75.5
X106.5Y-77.5
X106.5Y-79.4
X108.0Y-62.5
X108.0Y-63.5
X108.5Y-75.5
X108.5Y-77.5
X108.5Y-79.4
X109.0Y-54.9
X109.0Y-62.5
X109.0Y-63.5
T2
X105.0Y-55.5
X105.0Y-58.04
X105.0Y-62.0
X105.0Y-64.54
X105.0Y-68.5
X105.0Y-71.04
M30
